<?xml version="1.0" encoding="utf-8"?>
<!-- Generator: Adobe Illustrator 16.0.3, SVG Export Plug-In . SVG Version: 6.00 Build 0)  -->
<!DOCTYPE svg PUBLIC "-//W3C//DTD SVG 1.1//EN" "http://www.w3.org/Graphics/SVG/1.1/DTD/svg11.dtd">
<svg version="1.1" id="레이어_2" xmlns="http://www.w3.org/2000/svg" xmlns:xlink="http://www.w3.org/1999/xlink" x="0px"
	 y="0px" width="276.54px" height="35.859px" viewBox="0 -0.001 276.54 35.859" enable-background="new 0 -0.001 276.54 35.859"
	 xml:space="preserve">
<g>
	<g opacity="0.7">
		<path fill="#FFFFFF" d="M15.193,35.073c-2.405,0.088-4.774,0.07-7.108-0.041c-2.334-0.113-4.646-0.283-6.938-0.512v-1.992
			c2.46,0.311,4.978,0.529,7.552,0.656c2.575,0.129,5.094,0.094,7.554-0.107c1.245-0.082,2.298-0.324,3.162-0.717
			c0.861-0.398,1.563-0.891,2.1-1.486c0.537-0.596,0.913-1.266,1.125-2.016c0.21-0.75,0.303-1.533,0.274-2.355
			c-0.057-1.018-0.29-1.865-0.699-2.545c-0.411-0.68-0.97-1.268-1.676-1.762c-0.708-0.496-1.556-0.936-2.545-1.314
			c-0.991-0.383-2.095-0.785-3.311-1.213l-6.237-2.203c-0.935-0.342-1.903-0.692-2.908-1.063c-1.003-0.366-1.917-0.839-2.737-1.419
			c-0.819-0.58-1.492-1.295-2.015-2.146C0.262,11.99,0,10.901,0,9.572c0-1.302,0.226-2.447,0.68-3.438
			C1.13,5.145,1.76,4.31,2.567,3.629c0.806-0.678,1.761-1.208,2.863-1.59c1.104-0.383,2.292-0.617,3.564-0.701
			c2.037-0.142,4.25-0.176,6.642-0.104c2.39,0.071,4.829,0.22,7.319,0.446V3.63c-2.236-0.253-4.457-0.425-6.663-0.509
			c-2.205-0.084-4.427-0.055-6.661,0.084c-2.688,0.146-4.603,0.786-5.75,1.934C2.736,6.283,2.164,7.764,2.164,9.573
			c0,0.991,0.19,1.811,0.572,2.46c0.383,0.651,0.884,1.196,1.507,1.633c0.622,0.44,1.33,0.808,2.122,1.104
			c0.791,0.297,1.613,0.601,2.46,0.912l7.511,2.631c1.272,0.481,2.434,0.95,3.479,1.401s1.945,0.975,2.694,1.566
			c0.75,0.596,1.344,1.289,1.782,2.084c0.439,0.789,0.672,1.754,0.701,2.883c0.084,2.828-0.715,4.979-2.398,6.449
			C20.914,34.169,18.445,34.96,15.193,35.073z"/>
		<path fill="#FFFFFF" d="M41.795,34.311c0,0.535-0.254,0.805-0.763,0.805h-1.315V3.122H27.75V1.34h25.841v1.782H41.795V34.311z"/>
		<path fill="#FFFFFF" d="M70.438,33.63c3.196,0,5.686-0.891,7.469-2.672c1.782-1.779,2.673-4.668,2.673-8.654V1.34h2.122v21.729
			c0,1.951-0.276,3.699-0.827,5.238c-0.552,1.543-1.352,2.85-2.397,3.926c-1.047,1.074-2.335,1.893-3.861,2.459
			c-1.528,0.564-3.254,0.85-5.178,0.85c-1.896,0-3.594-0.283-5.093-0.85s-2.779-1.377-3.84-2.438
			c-1.06-1.061-1.875-2.359-2.438-3.904c-0.566-1.539-0.851-3.303-0.851-5.279V1.34h2.122v20.963c0,2.01,0.233,3.729,0.701,5.152
			c0.466,1.432,1.138,2.6,2.015,3.502c0.877,0.904,1.938,1.578,3.183,2.018C67.482,33.413,68.882,33.63,70.438,33.63z"/>
		<path fill="#FFFFFF" d="M90.253,1.34h13.663c3.396,0,5.891,0.863,7.49,2.59c1.599,1.727,2.397,4.428,2.397,8.104V22.94
			c0,2.006-0.197,3.768-0.594,5.283c-0.396,1.514-1.041,2.775-1.932,3.795c-0.892,1.02-2.065,1.789-3.521,2.313
			c-1.457,0.521-3.261,0.785-5.411,0.785H91.739c-0.452,0-0.813-0.156-1.083-0.467c-0.269-0.313-0.402-0.678-0.402-1.104V1.34z
			 M102.431,33.251c1.896,0,3.451-0.248,4.668-0.742c1.216-0.496,2.164-1.188,2.843-2.08c0.679-0.895,1.146-1.967,1.399-3.225
			c0.255-1.26,0.381-2.65,0.381-4.182V12.033c0-2.97-0.587-5.188-1.759-6.661c-1.176-1.471-3.248-2.207-6.217-2.207H92.375v29.703
			c0,0.254,0.183,0.383,0.551,0.383H102.431z"/>
		<path fill="#FFFFFF" d="M133.067,34.479c0,0.426-0.212,0.637-0.638,0.637h-1.653V20.985L118.002,1.34h2.419l11.542,17.823
			L143.589,1.34h2.376l-12.898,19.647V34.479z"/>
	</g>
	<g>
		<path fill="#FFFFFF" d="M176.83,5.516h-16.973v9.251h16.123v4.199c0,0.229-0.084,0.42-0.254,0.574
			c-0.171,0.156-0.354,0.232-0.553,0.232h-15.316v14.643c0,0.531-0.213,0.801-0.637,0.801h-5.263V0.595h22.87v4.921H176.83z"/>
		<path fill="#FFFFFF" d="M187.734,29.87c0,0.256,0.144,0.387,0.426,0.387h15.826v4.24c0,0.23-0.086,0.414-0.254,0.574
			c-0.17,0.15-0.354,0.234-0.552,0.234h-19.901c-0.479-0.027-0.862-0.193-1.146-0.49s-0.425-0.645-0.425-1.037V0.721h6.025V29.87
			L187.734,29.87z"/>
		<path fill="#FFFFFF" d="M221.298,35.858c-2.264,0-4.244-0.324-5.941-0.961c-1.697-0.635-3.127-1.514-4.285-2.631
			c-1.16-1.111-2.037-2.434-2.631-3.943c-0.595-1.512-0.892-3.148-0.892-4.9l-0.043-10.353c0-1.754,0.29-3.422,0.87-5.007
			c0.58-1.583,1.449-2.972,2.609-4.158c1.158-1.189,2.603-2.136,4.328-2.844c1.727-0.706,3.721-1.062,5.982-1.062
			c4.326,0,7.636,1.16,9.928,3.479c2.291,2.317,3.438,5.517,3.438,9.589v10.31c0,2.064-0.342,3.873-1.02,5.436
			c-0.679,1.555-1.619,2.854-2.82,3.9c-1.205,1.043-2.617,1.83-4.244,2.355C224.953,35.596,223.191,35.858,221.298,35.858z
			 M221.298,5.092c-2.49,0-4.441,0.758-5.855,2.271c-1.414,1.512-2.123,3.543-2.123,6.088v9.504c0,1.217,0.199,2.316,0.596,3.289
			c0.396,0.977,0.945,1.813,1.654,2.5c0.705,0.697,1.549,1.23,2.523,1.596c0.977,0.365,2.044,0.555,3.205,0.555
			c2.375,0,4.27-0.686,5.686-2.037c1.414-1.361,2.121-3.322,2.121-5.9v-9.504c0-2.545-0.68-4.576-2.037-6.088
			C225.711,5.849,223.785,5.092,221.298,5.092z"/>
		<path fill="#FFFFFF" d="M268.779,34.794c-0.144,0.621-0.555,0.936-1.231,0.936h-5.39l-5.43-23.21l-5.136,22.277
			c-0.144,0.621-0.553,0.934-1.229,0.934h-5.729l-7.001-35.175h5.771l4.326,26.982c0.028,0.146,0.105,0.215,0.233,0.215
			c0.126,0,0.204-0.066,0.231-0.215l5.56-26.77h5.562l5.727,26.813c0.058,0.146,0.148,0.213,0.275,0.213
			c0.129,0,0.221-0.066,0.275-0.213l5.602-27.025h5.345L268.779,34.794z"/>
	</g>
</g>
</svg>
