<?xml version="1.0" encoding="utf-8"?>
<!-- Generator: Adobe Illustrator 16.0.3, SVG Export Plug-In . SVG Version: 6.00 Build 0)  -->
<!DOCTYPE svg PUBLIC "-//W3C//DTD SVG 1.1//EN" "http://www.w3.org/Graphics/SVG/1.1/DTD/svg11.dtd">
<svg version="1.1" id="레이어_1" xmlns="http://www.w3.org/2000/svg" xmlns:xlink="http://www.w3.org/1999/xlink" x="0px"
	 y="0px" width="202.641px" height="40.092px" viewBox="0 0 202.641 40.092" enable-background="new 0 0 202.641 40.092"
	 xml:space="preserve">
<g>
	<path fill="#404A66" d="M0,25.262h0.725c1.421,0.997,2.866,1.753,4.333,2.266C6.523,28.043,7.893,28.3,9.163,28.3
		c1.724,0,3.045-0.339,3.968-1.021c0.923-0.679,1.384-1.821,1.384-3.423c0-1.118-0.446-2.139-1.338-3.062
		c-0.893-0.923-2.004-1.685-3.334-2.29c-1.541-0.726-2.888-1.429-4.036-2.109c-1.149-0.681-2.102-1.39-2.856-2.131
		c-0.757-0.74-1.323-1.548-1.702-2.427C0.869,10.96,0.681,9.962,0.681,8.843c0-1.36,0.256-2.539,0.771-3.538
		C1.965,4.309,2.668,3.484,3.56,2.834C4.453,2.185,5.481,1.7,6.646,1.382c1.163-0.317,2.396-0.476,3.696-0.476
		c1.329,0,2.698,0.136,4.104,0.41c1.406,0.271,2.712,0.845,3.923,1.722v4.399h-0.771c-1.059-0.694-2.231-1.223-3.516-1.587
		c-1.284-0.362-2.502-0.544-3.65-0.544c-1.452,0-2.563,0.266-3.334,0.793c-0.77,0.53-1.155,1.399-1.155,2.608
		c0,1.12,0.369,2.019,1.111,2.7c0.74,0.679,1.655,1.248,2.744,1.7c1.873,0.788,3.462,1.565,4.761,2.336
		c1.299,0.771,2.351,1.572,3.152,2.402c0.801,0.833,1.376,1.718,1.724,2.654c0.347,0.938,0.522,1.965,0.522,3.084
		c0,3.146-0.961,5.466-2.881,6.963c-1.919,1.497-4.587,2.244-8.005,2.244c-1.753,0-3.386-0.249-4.898-0.747
		c-1.511-0.5-2.903-1.172-4.172-2.02V25.262z"/>
	<path fill="#404A66" d="M41.091,27.438v3.765c-0.726,0.515-1.565,0.884-2.518,1.111c-0.952,0.227-1.867,0.341-2.744,0.341
		c-2.207,0-3.96-0.537-5.259-1.611c-1.301-1.072-1.951-2.759-1.951-5.056V13.106h-4.581V9.07h4.581V3.355l4.944-2.358V9.07h7.21
		v4.036h-7.21v12.518c0,1.936,1.058,2.903,3.174,2.903c0.755,0,1.443-0.112,2.063-0.339s1.187-0.476,1.702-0.75H41.091z"/>
	<path fill="#404A66" d="M46.488,9.07h4.898v13.833c0,2.146,0.249,3.65,0.748,4.512c0.5,0.862,1.369,1.292,2.609,1.292
		c0.635,0,1.216-0.164,1.746-0.498c0.528-0.332,0.989-0.801,1.382-1.406c0.393-0.604,0.703-1.321,0.93-2.154
		c0.227-0.832,0.34-1.746,0.34-2.744V9.07h4.899v23.131h-4.626l-0.137-3.084c-0.664,1.209-1.489,2.102-2.471,2.676
		c-0.984,0.574-1.973,0.862-2.971,0.862c-1.543,0-2.789-0.241-3.743-0.728c-0.952-0.483-1.7-1.162-2.244-2.041
		c-0.544-0.877-0.908-1.912-1.089-3.106c-0.181-1.194-0.271-2.518-0.271-3.968V9.07z"/>
	<path fill="#404A66" d="M76.558,8.616c0.936,0,1.873,0.273,2.811,0.818s1.724,1.375,2.358,2.493V0h4.898v32.201h-4.49l-0.317-2.949
		c-0.484,1.211-1.216,2.102-2.2,2.676c-0.981,0.576-1.897,0.862-2.742,0.862c-1.724,0-3.13-0.333-4.219-0.997
		c-1.089-0.666-1.943-1.564-2.563-2.7c-0.62-1.133-1.05-2.432-1.292-3.899c-0.242-1.467-0.364-3.017-0.364-4.648
		c0-1.421,0.129-2.842,0.386-4.263c0.257-1.421,0.696-2.7,1.316-3.833c0.62-1.133,1.451-2.056,2.495-2.766
		C73.677,8.973,74.984,8.616,76.558,8.616z M81.727,18.595c0-0.725-0.068-1.451-0.203-2.178c-0.137-0.725-0.364-1.375-0.681-1.949
		c-0.317-0.574-0.742-1.035-1.27-1.384c-0.53-0.347-1.202-0.522-2.019-0.522c-1.27,0-2.283,0.644-3.038,1.928
		c-0.757,1.285-1.135,3.35-1.135,6.19c0,2.993,0.332,5.081,0.998,6.26c0.665,1.179,1.707,1.768,3.13,1.768
		c0.574,0,1.119-0.134,1.631-0.408c0.515-0.271,0.96-0.664,1.338-1.179c0.378-0.513,0.681-1.133,0.908-1.858
		c0.227-0.727,0.339-1.526,0.339-2.404V18.595z"/>
	<path fill="#404A66" d="M91.796,35.648h0.635c0.393,0.149,0.854,0.279,1.384,0.384c0.528,0.106,0.914,0.159,1.155,0.159
		c0.696,0,1.293-0.174,1.792-0.521c0.5-0.348,0.93-1.051,1.293-2.109c0.09-0.302,0.181-0.598,0.271-0.883
		c0.09-0.289,0.273-0.885,0.544-1.793c-1.36-3.506-2.774-7.148-4.241-10.93c-1.467-3.779-2.879-7.407-4.241-10.884h5.398
		l4.808,13.924l0.408,2.222l0.498-2.041l4.4-14.105h5.125l-7.981,23.221c-0.454,1.361-0.923,2.533-1.406,3.516
		s-1.013,1.791-1.587,2.426c-0.574,0.635-1.226,1.104-1.951,1.406s-1.558,0.453-2.495,0.453c-0.542,0-1.111-0.038-1.7-0.112
		c-0.59-0.077-1.293-0.22-2.109-0.432V35.648z"/>
	<path fill="#719AA9" d="M133.43,1.451v4.263h-12.473v7.893h11.521v4.307h-11.521v14.288h-5.079V1.451H133.43z"/>
	<path fill="#719AA9" d="M148.579,0v27.303c0,0.574,0.287,0.862,0.861,0.862h5.625v4.036h-6.895c-0.785,0-1.467-0.137-2.041-0.408
		c-0.574-0.273-1.043-0.635-1.406-1.088c-0.361-0.455-0.635-0.977-0.816-1.565c-0.18-0.591-0.271-1.202-0.271-1.836V4.036h-4.762V0
		H148.579z"/>
	<path fill="#719AA9" d="M168.762,32.79c-1.875,0-3.439-0.317-4.695-0.952c-1.254-0.635-2.254-1.497-2.992-2.586
		c-0.742-1.087-1.264-2.364-1.566-3.831c-0.303-1.467-0.453-3.047-0.453-4.741c0-1.692,0.158-3.272,0.477-4.739
		c0.316-1.465,0.846-2.744,1.588-3.831c0.74-1.089,1.73-1.951,2.969-2.585c1.24-0.635,2.799-0.952,4.674-0.952
		c1.814,0,3.332,0.317,4.557,0.952s2.215,1.497,2.971,2.585c0.756,1.087,1.299,2.373,1.633,3.855
		c0.332,1.482,0.498,3.054,0.498,4.715c0,1.694-0.158,3.274-0.475,4.741c-0.318,1.467-0.848,2.744-1.588,3.831
		c-0.742,1.089-1.73,1.951-2.971,2.586S170.606,32.79,168.762,32.79z M168.762,28.981c1.631,0,2.824-0.74,3.582-2.222
		c0.754-1.482,1.133-3.508,1.133-6.079c0-2.599-0.379-4.632-1.133-6.099c-0.758-1.465-1.951-2.2-3.582-2.2
		c-1.695,0-2.912,0.734-3.652,2.2c-0.74,1.467-1.111,3.5-1.111,6.099c0,2.571,0.371,4.597,1.111,6.079
		S167.067,28.981,168.762,28.981z"/>
	<path fill="#719AA9" d="M193.434,10.657l1.994,9.798l0.635,4.988l0.363-5.035l1.451-11.338h4.764l-3.629,23.131h-4.445
		l-2.586-11.248l-0.588-3.674L190.758,21l-2.631,11.202h-4.398L180.1,9.07h4.809l1.359,11.565l0.316,5.034l0.59-4.944l2.041-10.069
		H193.434z"/>
</g>
</svg>
