<?xml version="1.0" encoding="utf-8"?>
<!-- Generator: Adobe Illustrator 16.0.3, SVG Export Plug-In . SVG Version: 6.00 Build 0)  -->
<!DOCTYPE svg PUBLIC "-//W3C//DTD SVG 1.1//EN" "http://www.w3.org/Graphics/SVG/1.1/DTD/svg11.dtd">
<svg version="1.1" id="레이어_1" xmlns="http://www.w3.org/2000/svg" xmlns:xlink="http://www.w3.org/1999/xlink" x="0px"
	 y="0px" width="155.91px" height="155.91px" viewBox="0 0 155.91 155.91" enable-background="new 0 0 155.91 155.91"
	 xml:space="preserve">
<g>
	<linearGradient id="SVGID_1_" gradientUnits="userSpaceOnUse" x1="5.0728" y1="5.0728" x2="150.8383" y2="150.8383">
		<stop  offset="0" style="stop-color:#66B8E8"/>
		<stop  offset="0.4348" style="stop-color:#484B9D;stop-opacity:0.9"/>
		<stop  offset="0.6715" style="stop-color:#2B5EAB"/>
		<stop  offset="1" style="stop-color:#5BC4E7"/>
	</linearGradient>
	<path fill="url(#SVGID_1_)" d="M154.353,142.353c0,6.627-5.373,12-12,12H13.558c-6.628,0-12-5.373-12-12V13.558
		c0-6.628,5.372-12,12-12h128.795c6.627,0,12,5.372,12,12V142.353z"/>
	<path fill="#FFFFFF" d="M111.014,87.435c-4.321-7.527-11.85-11.71-15.334-13.382l-20.352-9.201
		c-3.345-1.533-11.151-5.436-11.151-14.636c0-9.897,9.339-13.521,15.612-13.521c11.848,0,16.309,6.969,21.049,16.449l11.986-7.109
		c-6.271-13.939-17.423-21.746-33.035-21.746c-16.031,0-29.134,10.873-29.134,26.345c0,7.109,1.673,11.71,3.066,14.218
		c3.207,5.715,10.595,10.873,16.867,13.661l18.122,8.224c10.733,4.878,12.546,10.873,12.546,15.612
		c0,11.151-9.34,16.448-17.982,16.448c-12.833,0-19.634-8.799-22.878-16.646c-0.881,4.423-4.781,7.757-9.461,7.757
		c-0.969,0-1.902-0.146-2.784-0.412c2.197,4.454,4.815,9.134,10.729,14.042c7.109,5.993,17.146,8.083,23.419,8.083
		c5.436,0,13.799,0,22.163-7.247c6.552-5.576,10.036-13.521,10.036-23.14C114.498,93.706,112.268,89.804,111.014,87.435z"/>
	<circle fill="#FFFFFF" cx="49.062" cy="96.801" r="9.65"/>
</g>
</svg>
