<?xml version="1.0" encoding="utf-8"?>
<!-- Generator: Adobe Illustrator 16.0.3, SVG Export Plug-In . SVG Version: 6.00 Build 0)  -->
<!DOCTYPE svg PUBLIC "-//W3C//DTD SVG 1.1//EN" "http://www.w3.org/Graphics/SVG/1.1/DTD/svg11.dtd">
<svg version="1.1" id="레이어_1" xmlns="http://www.w3.org/2000/svg" xmlns:xlink="http://www.w3.org/1999/xlink" x="0px"
	 y="0px" width="155.91px" height="155.91px" viewBox="0 0 155.91 155.91" enable-background="new 0 0 155.91 155.91"
	 xml:space="preserve">
<g>
	<linearGradient id="SVGID_1_" gradientUnits="userSpaceOnUse" x1="38.0332" y1="33.9766" x2="127.3614" y2="123.3047">
		<stop  offset="0" style="stop-color:#66B8E8"/>
		<stop  offset="0.4348" style="stop-color:#484B9D;stop-opacity:0.9"/>
		<stop  offset="0.6715" style="stop-color:#2B5EAB"/>
		<stop  offset="1" style="stop-color:#5BC4E7"/>
	</linearGradient>
	<path fill="url(#SVGID_1_)" d="M120.992,90.212c-5.587-9.732-15.321-15.141-19.826-17.303L74.852,61.013
		c-4.326-1.982-14.418-7.028-14.418-18.924c0-12.797,12.075-17.483,20.186-17.483c15.319,0,21.087,9.012,27.216,21.269l15.499-9.192
		c-8.109-18.023-22.528-28.117-42.715-28.117c-20.728,0-37.669,14.059-37.669,34.064c0,9.192,2.163,15.141,3.965,18.384
		c4.146,7.39,13.699,14.059,21.809,17.664l23.431,10.634c13.878,6.308,16.222,14.059,16.222,20.187
		c0,14.419-12.076,21.268-23.251,21.268c-16.593,0-25.387-11.377-29.582-21.523c-1.139,5.719-6.181,10.029-12.233,10.029
		c-1.252,0-2.459-0.189-3.6-0.533c2.841,5.759,6.227,11.811,13.874,18.156c9.192,7.749,22.169,10.452,30.281,10.452
		c7.028,0,17.842,0,28.657-9.371c8.471-7.21,12.977-17.483,12.977-29.919C125.498,98.321,122.614,93.275,120.992,90.212z"/>
	<radialGradient id="SVGID_2_" cx="40.8892" cy="102.3232" r="12.4773" gradientUnits="userSpaceOnUse">
		<stop  offset="0" style="stop-color:#3D8CC9"/>
		<stop  offset="0.7295" style="stop-color:#2B5EAB"/>
	</radialGradient>
	<circle fill="url(#SVGID_2_)" cx="40.889" cy="102.323" r="12.478"/>
</g>
</svg>
