<?xml version="1.0" encoding="utf-8"?>
<!-- Generator: Adobe Illustrator 16.0.3, SVG Export Plug-In . SVG Version: 6.00 Build 0)  -->
<!DOCTYPE svg PUBLIC "-//W3C//DTD SVG 1.1//EN" "http://www.w3.org/Graphics/SVG/1.1/DTD/svg11.dtd">
<svg version="1.1" id="레이어_2" xmlns="http://www.w3.org/2000/svg" xmlns:xlink="http://www.w3.org/1999/xlink" x="0px"
	 y="0px" width="276.54px" height="35.857px" viewBox="0 0 276.54 35.857" enable-background="new 0 0 276.54 35.857"
	 xml:space="preserve">
<g>
	<g>
		<path fill="#3C3F42" d="M15.193,35.073c-2.405,0.087-4.774,0.069-7.108-0.041c-2.334-0.114-4.646-0.283-6.938-0.512v-1.992
			c2.46,0.311,4.978,0.528,7.552,0.656c2.575,0.128,5.094,0.094,7.554-0.107c1.245-0.082,2.298-0.324,3.162-0.718
			c0.861-0.397,1.563-0.891,2.1-1.485c0.537-0.597,0.913-1.267,1.125-2.017c0.21-0.749,0.303-1.533,0.274-2.354
			c-0.057-1.019-0.29-1.867-0.699-2.545c-0.411-0.681-0.97-1.268-1.676-1.762c-0.708-0.497-1.556-0.936-2.545-1.315
			c-0.991-0.383-2.095-0.786-3.311-1.212l-6.237-2.203c-0.935-0.342-1.903-0.693-2.908-1.063c-1.003-0.366-1.917-0.839-2.737-1.419
			c-0.819-0.58-1.492-1.295-2.015-2.146C0.262,11.991,0,10.901,0,9.572c0-1.302,0.226-2.447,0.68-3.438
			C1.13,5.144,1.76,4.309,2.567,3.63C3.373,2.952,4.328,2.422,5.43,2.04c1.104-0.383,2.292-0.617,3.564-0.701
			c2.037-0.142,4.25-0.176,6.642-0.104c2.39,0.071,4.829,0.22,7.319,0.446v1.95c-2.236-0.253-4.457-0.425-6.663-0.509
			c-2.205-0.084-4.427-0.055-6.661,0.084C6.944,3.35,5.029,3.992,3.881,5.138C2.736,6.283,2.164,7.763,2.164,9.572
			c0,0.991,0.19,1.811,0.572,2.46c0.383,0.651,0.884,1.196,1.507,1.633c0.622,0.44,1.33,0.807,2.122,1.104
			c0.791,0.297,1.613,0.601,2.46,0.912l7.511,2.631c1.272,0.482,2.434,0.95,3.479,1.401c1.046,0.452,1.945,0.975,2.694,1.567
			c0.75,0.595,1.344,1.288,1.782,2.083c0.439,0.79,0.672,1.754,0.701,2.883c0.084,2.828-0.715,4.979-2.398,6.45
			C20.914,34.169,18.445,34.96,15.193,35.073z"/>
		<path fill="#3C3F42" d="M41.795,34.311c0,0.535-0.254,0.805-0.763,0.805h-1.315V3.122H27.75V1.34h25.841v1.782H41.795V34.311z"/>
		<path fill="#3C3F42" d="M70.438,33.63c3.196,0,5.686-0.891,7.469-2.673c1.782-1.78,2.673-4.668,2.673-8.655V1.34h2.122v21.729
			c0,1.95-0.276,3.698-0.827,5.238c-0.552,1.543-1.352,2.849-2.397,3.926c-1.047,1.074-2.335,1.893-3.861,2.459
			c-1.528,0.565-3.254,0.85-5.178,0.85c-1.896,0-3.594-0.283-5.093-0.85c-1.499-0.567-2.779-1.378-3.84-2.438
			c-1.06-1.06-1.875-2.36-2.438-3.904c-0.566-1.54-0.851-3.302-0.851-5.279V1.34h2.122v20.962c0,2.01,0.233,3.729,0.701,5.154
			c0.466,1.431,1.138,2.598,2.015,3.501c0.877,0.905,1.938,1.578,3.183,2.018C67.482,33.412,68.882,33.63,70.438,33.63z"/>
		<path fill="#3C3F42" d="M90.253,1.34h13.663c3.396,0,5.891,0.863,7.49,2.589c1.599,1.727,2.397,4.428,2.397,8.104v10.907
			c0,2.006-0.197,3.767-0.594,5.283c-0.396,1.513-1.041,2.775-1.932,3.795c-0.892,1.019-2.065,1.789-3.521,2.313
			c-1.457,0.521-3.261,0.784-5.411,0.784H91.739c-0.452,0-0.813-0.155-1.083-0.467c-0.269-0.312-0.402-0.677-0.402-1.103V1.34z
			 M102.431,33.25c1.896,0,3.451-0.248,4.668-0.742c1.216-0.496,2.164-1.188,2.843-2.081c0.679-0.893,1.146-1.966,1.399-3.223
			c0.255-1.261,0.381-2.651,0.381-4.182V12.033c0-2.97-0.587-5.189-1.759-6.661c-1.176-1.471-3.248-2.207-6.217-2.207H92.375v29.702
			c0,0.255,0.183,0.383,0.551,0.383H102.431z"/>
		<path fill="#3C3F42" d="M133.067,34.479c0,0.425-0.212,0.636-0.638,0.636h-1.653V20.984L118.002,1.34h2.419l11.542,17.822
			L143.589,1.34h2.376l-12.898,19.646V34.479z"/>
	</g>
	<g>
		<path fill="#222528" d="M176.83,5.515h-16.973v9.251h16.123v4.2c0,0.227-0.084,0.419-0.254,0.574
			c-0.171,0.155-0.354,0.232-0.553,0.232h-15.316v14.642c0,0.531-0.213,0.801-0.637,0.801h-5.263V0.594h22.87v4.921H176.83z"/>
		<path fill="#222528" d="M187.734,29.869c0,0.256,0.143,0.388,0.426,0.388h15.826v4.24c0,0.229-0.086,0.414-0.254,0.573
			c-0.17,0.151-0.354,0.234-0.552,0.234h-19.901c-0.48-0.027-0.863-0.193-1.146-0.49c-0.283-0.297-0.425-0.644-0.425-1.036V0.72
			h6.025V29.869L187.734,29.869z"/>
		<path fill="#222528" d="M221.298,35.857c-2.264,0-4.244-0.324-5.941-0.96s-3.127-1.514-4.285-2.632
			c-1.16-1.111-2.037-2.432-2.631-3.943c-0.595-1.512-0.892-3.148-0.892-4.899l-0.043-10.354c0-1.754,0.29-3.422,0.87-5.007
			c0.58-1.583,1.449-2.971,2.609-4.158c1.158-1.189,2.603-2.136,4.328-2.844C217.041,0.354,219.035,0,221.297,0
			c4.326,0,7.636,1.16,9.928,3.479c2.291,2.318,3.438,5.517,3.438,9.589v10.31c0,2.064-0.342,3.874-1.02,5.436
			c-0.679,1.555-1.619,2.853-2.82,3.901c-1.205,1.043-2.618,1.83-4.244,2.355C224.953,35.595,223.191,35.857,221.298,35.857z
			 M221.298,5.092c-2.49,0-4.441,0.757-5.855,2.271c-1.414,1.512-2.123,3.543-2.123,6.088v9.505c0,1.217,0.199,2.315,0.595,3.289
			c0.396,0.975,0.946,1.811,1.655,2.5c0.705,0.697,1.549,1.229,2.523,1.595c0.977,0.366,2.044,0.554,3.205,0.554
			c2.375,0,4.27-0.685,5.686-2.037c1.414-1.36,2.121-3.322,2.121-5.899v-9.505c0-2.545-0.68-4.576-2.037-6.088
			C225.711,5.848,223.785,5.092,221.298,5.092z"/>
		<path fill="#222528" d="M268.779,34.794c-0.143,0.621-0.554,0.934-1.231,0.934h-5.39l-5.43-23.21l-5.135,22.277
			c-0.143,0.621-0.553,0.934-1.23,0.934h-5.729l-7.001-35.176h5.771l4.326,26.983c0.029,0.146,0.106,0.214,0.234,0.214
			c0.126,0,0.204-0.067,0.232-0.214l5.559-26.771h5.561l5.727,26.813c0.058,0.146,0.148,0.214,0.275,0.214
			c0.129,0,0.221-0.068,0.276-0.214l5.601-27.025h5.345L268.779,34.794z"/>
	</g>
</g>
</svg>
